<?xml version="1.0" encoding="utf-8"?>
<!-- Generator: Adobe Illustrator 24.0.0, SVG Export Plug-In . SVG Version: 6.00 Build 0)  -->
<svg version="1.1" id="Layer_1" xmlns="http://www.w3.org/2000/svg" xmlns:xlink="http://www.w3.org/1999/xlink" x="0px" y="0px"
	 viewBox="0 0 243 75" style="enable-background:new 0 0 243 75;" xml:space="preserve">
<style type="text/css">
	.st0{fill:#31515F;}
	.st1{fill:#D46C2B;}
	.st2{fill:#444445;}
	.st3{fill:#454546;}
</style>
<g>
	<g>
		<g>
			<path class="st0" d="M56.1,20.4c-3-4.9-7.6-7.3-12.8-8.3C30.4,9.4,18.5,16.8,15,29.6c-1.7,6.2-1.8,12.5,0.4,18.6
				c3.1,8.5,9.2,13.3,18,14.8c7.4,1.3,14-0.4,19.4-5.8c0.1-0.1,0.2-0.1,0.4-0.3c3,2.6,6,5.2,9.1,7.8c-2.7,2.8-5.7,4.9-9.1,6.6
				c-6,2.9-12.3,3.5-18.8,3c-7-0.6-13.6-2.7-19.3-6.8C6.3,61.4,1.6,52.9,0.4,42.3c-0.7-6.7,0-13.3,2.6-19.6C7,12.8,14,6,24.1,2.7
				C35.7-1,46.9-0.1,57.6,5.9c2.7,1.5,5.2,3.5,7.2,5.9c0.5,0.6,0.9,1.3,1.5,2.1C62.9,16.1,59.6,18.2,56.1,20.4z"/>
		</g>
		<g>
			<path class="st1" d="M93.4,64.6c-0.5,0-0.9,0.1-1.2,0.1c-4.8,0-9.6,0-14.4,0c-0.9,0-1.7-0.3-2.4-0.9
				c-9.6-8.8-19.3-17.6-28.9-26.5c-0.9-0.8-1.4-0.8-2.3,0c-5.1,4.9-10.3,9.7-15.4,14.6c-0.2,0.2-0.5,0.4-0.8,0.7
				c-2.5-3.1-4.9-6.1-7.4-9.3c8.3-7.9,16.6-15.7,24.9-23.5c4.2,3.8,8.3,7.5,12.5,11.2c0.1,0,0.3-0.1,0.4-0.1c0-1.3,0-2.7,0-4
				c0-1.8,0-1.8,1.8-1.8c2,0,4,0,6,0c0.9,0,1.2,0.3,1.1,1.2c0,4.2,0,8.3,0,12.5c0,1,0.3,1.6,1,2.3c7.9,7.4,15.8,14.8,23.8,22.2
				C92.5,63.6,92.8,64,93.4,64.6z"/>
		</g>
		<g>
			<path class="st2" d="M41.4,46c1.1,0,2.2,0,3.4,0c0,1.2,0,2.3,0,3.4c-1.2,0-2.2,0-3.4,0C41.4,48.3,41.4,47.2,41.4,46z"/>
		</g>
		<g>
			<path class="st2" d="M44.9,51.1c0,0.9,0,1.9,0,2.8c0,0,0,0.1,0,0.1c-0.7,1.1-1.8,0.3-2.7,0.5c-0.6,0.1-0.9-0.1-0.9-0.8
				c0-0.8,0-1.7,0-2.6C42.5,51.1,43.6,51.1,44.9,51.1z"/>
		</g>
		<g>
			<path class="st2" d="M46.4,46c1.1,0,2.2,0,3.4,0c0,1.1,0,2.2,0,3.4c-1.1,0-2.2,0-3.4,0C46.4,48.3,46.4,47.2,46.4,46z"/>
		</g>
		<g>
			<path class="st2" d="M49.7,54.4c-1.1,0-2.2,0-3.4,0c0-1.1,0-2.2,0-3.3c1.1,0,2.2,0,3.4,0C49.7,52.1,49.7,53.2,49.7,54.4z"/>
		</g>
	</g>
	<g>
		<path class="st3" d="M84,11.5c2.2-1.3,4.8-1.9,7.7-1.9c2.3,0,4.3,0.4,6.1,1.3c1.8,0.9,3.3,2.1,4.4,3.7c1.1,1.6,1.9,3.4,2.2,5.5
			h-4.9c-0.5-1.9-1.4-3.4-2.8-4.5c-1.4-1.1-3.1-1.6-5.2-1.6c-1.9,0-3.5,0.5-4.9,1.4s-2.5,2.2-3.2,3.9c-0.7,1.6-1.1,3.5-1.1,5.7
			c0,2.1,0.4,4,1.1,5.7s1.8,3,3.2,3.9s3,1.4,4.9,1.4c2.1,0,3.8-0.5,5.2-1.6c1.4-1.1,2.3-2.6,2.8-4.5h4.9c-0.3,2.1-1,4-2.2,5.5
			c-1.1,1.6-2.6,2.8-4.4,3.7c-1.8,0.9-3.9,1.3-6.1,1.3c-2.9,0-5.5-0.6-7.7-1.9c-2.2-1.3-3.9-3-5.1-5.4c-1.2-2.3-1.8-5-1.8-8.1
			c0-3,0.6-5.7,1.8-8C80.1,14.6,81.8,12.8,84,11.5z"/>
		<path class="st3" d="M126.5,27.8v12.1h-4.6V28.1c0-2.1-0.5-3.7-1.4-4.8c-0.9-1.1-2.2-1.6-3.9-1.6c-1.8,0-3.3,0.6-4.3,1.9
			s-1.6,3-1.6,5.2v11.1H106V9.8h4.6v11.3c1.7-2.3,4-3.4,6.9-3.4c2.6,0,4.8,0.8,6.4,2.4C125.6,21.7,126.5,24.3,126.5,27.8z"/>
		<path class="st3" d="M149.6,39.9h-2.4c-1.4,0-2.5-0.3-3.1-0.9c-0.6-0.6-0.9-1.5-0.9-2.6c-1.7,2.5-4.1,3.8-7.3,3.8
			c-2.5,0-4.4-0.6-5.9-1.7c-1.5-1.1-2.2-2.7-2.2-4.7c0-2.3,0.8-4,2.4-5.2c1.6-1.2,3.9-1.8,7-1.8h5.5v-1.3c0-1.2-0.4-2.2-1.3-2.9
			c-0.9-0.7-2-1.1-3.6-1.1c-1.3,0-2.5,0.3-3.3,0.9s-1.4,1.4-1.6,2.3h-4.6c0.2-2.2,1.2-3.9,2.9-5.1c1.7-1.2,4-1.8,6.7-1.8
			c3,0,5.2,0.7,6.8,2.1c1.6,1.4,2.4,3.4,2.4,5.9v8.7c0,1,0.5,1.5,1.5,1.5h0.9V39.9z M136.9,30.1c-1.4,0-2.5,0.3-3.3,0.8
			c-0.8,0.6-1.2,1.4-1.2,2.5c0,0.9,0.4,1.7,1.1,2.3c0.7,0.6,1.7,0.9,3,0.9c1.9,0,3.4-0.5,4.5-1.5c1.1-1,1.6-2.4,1.7-4.1v-0.8H136.9z
			"/>
		<path class="st3" d="M170.4,27.8v12.1h-4.7V28.1c0-2.1-0.4-3.7-1.3-4.8s-2.2-1.6-3.9-1.6c-1.8,0-3.3,0.6-4.3,1.9s-1.6,3-1.6,5.3
			v11.1H150v-22h4l0.5,2.9c1.7-2.1,4-3.1,7-3.1c2.6,0,4.7,0.8,6.4,2.4C169.6,21.7,170.4,24.3,170.4,27.8z"/>
		<path class="st3" d="M193,27.8v12.1h-4.7V28.1c0-2.1-0.4-3.7-1.3-4.8s-2.2-1.6-3.9-1.6c-1.8,0-3.3,0.6-4.3,1.9s-1.6,3-1.6,5.3
			v11.1h-4.6v-22h4l0.5,2.9c1.7-2.1,4-3.1,7-3.1c2.6,0,4.7,0.8,6.4,2.4C192.1,21.7,193,24.3,193,27.8z"/>
		<path class="st3" d="M199.3,19.1c1.6-0.9,3.5-1.4,5.6-1.4c2.1,0,4,0.4,5.6,1.3c1.6,0.9,2.9,2.1,3.8,3.7c0.9,1.6,1.4,3.4,1.4,5.5
			c0,0.6,0,1.2-0.1,1.8h-16.6v0.3c0.1,1.9,0.7,3.4,1.8,4.6s2.5,1.7,4.3,1.7c1.4,0,2.6-0.3,3.6-1s1.6-1.6,1.9-2.9h4.6
			c-0.4,2.2-1.5,4.1-3.2,5.5c-1.8,1.4-4,2.1-6.6,2.1c-2.3,0-4.3-0.5-6-1.4c-1.7-0.9-3-2.2-4-3.9s-1.4-3.7-1.4-5.9
			c0-2.3,0.5-4.2,1.4-6S197.7,20,199.3,19.1z M209.1,22.8c-1.1-0.9-2.4-1.4-4.1-1.4c-1.5,0-2.8,0.5-3.9,1.4
			c-1.1,0.9-1.7,2.2-1.9,3.7H211C210.8,24.9,210.2,23.7,209.1,22.8z"/>
		<path class="st3" d="M222,9.8v30.1h-4.6V9.8H222z"/>
		<path class="st3" d="M229.7,35.5c1,0.7,2.3,1.1,3.8,1.1c1.4,0,2.5-0.3,3.4-0.8c0.9-0.5,1.3-1.2,1.3-2.1c0-0.7-0.2-1.3-0.6-1.7
			c-0.4-0.4-0.9-0.6-1.6-0.8c-0.7-0.2-1.7-0.3-3.1-0.5c-1.9-0.2-3.5-0.5-4.8-0.9c-1.2-0.4-2.2-1-3-1.8c-0.8-0.8-1.1-2-1.1-3.4
			c0-1.3,0.4-2.5,1.1-3.6s1.8-1.9,3.1-2.4c1.3-0.6,2.8-0.9,4.5-0.9c2.8,0,5,0.6,6.8,1.8c1.7,1.2,2.7,3,2.8,5.2h-4.5
			c-0.1-1-0.6-1.8-1.5-2.5c-0.9-0.6-2-1-3.4-1s-2.4,0.3-3.3,0.8s-1.2,1.2-1.2,2.1c0,0.7,0.2,1.2,0.6,1.5c0.4,0.3,0.9,0.6,1.6,0.7
			c0.6,0.1,1.6,0.3,3.1,0.5c1.9,0.2,3.5,0.5,4.8,0.9s2.3,1.1,3.1,2c0.8,0.9,1.2,2.1,1.2,3.7c0,1.4-0.4,2.6-1.2,3.6s-1.9,1.8-3.3,2.4
			s-3,0.8-4.7,0.8c-3,0-5.3-0.7-7.2-2c-1.8-1.3-2.8-3.2-2.8-5.5h4.5C228.2,33.8,228.7,34.8,229.7,35.5z"/>
	</g>
	<g>
		<path class="st3" d="M102.6,54.1L104,58h-1.3l-1.3-3.7h-2.5L98.2,58H97l1.7-9.8h3.4c0.6,0,1.2,0.1,1.6,0.4c0.5,0.2,0.8,0.6,1,1
			c0.2,0.4,0.3,0.9,0.3,1.4c0,0.8-0.2,1.5-0.7,2.1S103.4,54,102.6,54.1z M103.9,51c0-0.5-0.2-0.9-0.5-1.2c-0.3-0.3-0.8-0.4-1.4-0.4
			h-2.3L99,53.1h2.4c0.7,0,1.3-0.2,1.8-0.6C103.7,52.2,103.9,51.7,103.9,51z"/>
		<path class="st3" d="M112.7,48.3l-0.2,1.1h-4.9l-0.5,3.1h4.1l-0.2,1.1h-4.1l-0.6,3.3h5.1l-0.2,1.1h-6.3l1.7-9.8H112.7z"/>
		<path class="st3" d="M118,55.4h-4.3l-1.4,2.6H111l5.4-9.8h1.4l1.9,9.8h-1.2L118,55.4z M117.8,54.3l-0.9-4.7l-2.6,4.7H117.8z"/>
		<path class="st3" d="M121.9,48.3h1.2l-1.5,8.6h4.4l-0.2,1.1h-5.7L121.9,48.3z"/>
		<path class="st3" d="M133.7,48.3l-0.2,1.1h-3.2l-1.5,8.6h-1.2l1.5-8.6h-3.2l0.2-1.1H133.7z"/>
		<path class="st3" d="M142,48.2l-4.8,6.2l-0.7,3.6h-1.2l0.7-3.6l-2.6-6.2h1.3l2.1,5l3.8-5H142z"/>
		<path class="st3" d="M146.6,48.3l-1.7,9.8h-1.2l1.7-9.8H146.6z"/>
		<path class="st3" d="M148.8,48.3l4,7.7l1.4-7.7h1.2l-1.7,9.8h-1.1l-3.9-7.5l-1.3,7.5H146l1.7-9.8H148.8z"/>
		<path class="st3" d="M157.5,48.3l4,7.7l1.4-7.7h1.2l-1.7,9.8h-1.1l-3.9-7.5L156,58h-1.2l1.7-9.8H157.5z"/>
		<path class="st3" d="M172.9,50.2c0.3,0.6,0.5,1.3,0.5,2.1c0,1.1-0.2,2-0.7,2.9c-0.4,0.9-1.1,1.6-1.9,2.1c-0.8,0.5-1.8,0.8-2.8,0.8
			c-0.8,0-1.5-0.2-2.1-0.5c-0.6-0.3-1.1-0.8-1.4-1.5s-0.5-1.3-0.5-2.1c0-1.1,0.2-2,0.7-2.9c0.5-0.9,1.1-1.6,1.9-2.1
			c0.8-0.5,1.8-0.8,2.9-0.8c0.8,0,1.5,0.2,2.1,0.5C172.1,49,172.6,49.5,172.9,50.2z M165.7,51.6c-0.3,0.7-0.5,1.5-0.5,2.3
			c0,0.6,0.1,1.1,0.4,1.6c0.2,0.5,0.6,0.8,1,1.1s0.9,0.4,1.5,0.4c0.8,0,1.5-0.2,2.1-0.6s1.1-1,1.5-1.7c0.3-0.7,0.5-1.5,0.5-2.3
			c0-0.6-0.1-1.1-0.4-1.6c-0.2-0.5-0.6-0.8-1-1.1s-0.9-0.4-1.5-0.4c-0.8,0-1.5,0.2-2.2,0.6C166.5,50.4,166,50.9,165.7,51.6z"/>
		<path class="st3" d="M182.2,48.3L177,58h-1.5l-1.8-9.8h1.2l1.5,8.3l4.4-8.3H182.2z"/>
		<path class="st3" d="M185.7,55.4h-4.3L180,58h-1.3l5.4-9.8h1.4l1.9,9.8h-1.2L185.7,55.4z M185.5,54.3l-0.9-4.7l-2.6,4.7H185.5z"/>
		<path class="st3" d="M195.1,48.3l-0.2,1.1h-3.2l-1.5,8.6H189l1.5-8.6h-3.2l0.2-1.1H195.1z"/>
		<path class="st3" d="M196.9,48.3l-1.7,9.8H194l1.7-9.8H196.9z"/>
		<path class="st3" d="M205.8,50.2c0.3,0.6,0.5,1.3,0.5,2.1c0,1.1-0.2,2-0.7,2.9c-0.4,0.9-1.1,1.6-1.9,2.1c-0.8,0.5-1.8,0.8-2.8,0.8
			c-0.8,0-1.5-0.2-2.1-0.5c-0.6-0.3-1.1-0.8-1.4-1.5s-0.5-1.3-0.5-2.1c0-1.1,0.2-2,0.7-2.9c0.5-0.9,1.1-1.6,1.9-2.1
			c0.8-0.5,1.8-0.8,2.9-0.8c0.8,0,1.5,0.2,2.1,0.5C205,49,205.5,49.5,205.8,50.2z M198.6,51.6c-0.3,0.7-0.5,1.5-0.5,2.3
			c0,0.6,0.1,1.1,0.4,1.6c0.2,0.5,0.6,0.8,1,1.1s0.9,0.4,1.5,0.4c0.8,0,1.5-0.2,2.1-0.6s1.1-1,1.5-1.7c0.3-0.7,0.5-1.5,0.5-2.3
			c0-0.6-0.1-1.1-0.4-1.6c-0.2-0.5-0.6-0.8-1-1.1s-0.9-0.4-1.5-0.4c-0.8,0-1.5,0.2-2.2,0.6C199.4,50.4,198.9,50.9,198.6,51.6z"/>
		<path class="st3" d="M208.9,48.3l4,7.7l1.4-7.7h1.2l-1.7,9.8h-1.1l-3.9-7.5l-1.3,7.5h-1.2l1.7-9.8H208.9z"/>
		<path class="st3" d="M219.6,48.3h1.2l-1.5,8.6h4.4l-0.2,1.1h-5.7L219.6,48.3z"/>
		<path class="st3" d="M231.4,48.3l-0.2,1.1H228l-1.5,8.6h-1.2l1.5-8.6h-3.2l0.2-1.1H231.4z"/>
		<path class="st3" d="M234.5,48.3c0.9,0,1.7,0.2,2.4,0.5c0.7,0.3,1.2,0.8,1.6,1.5c0.4,0.6,0.5,1.4,0.5,2.2c0,1.1-0.2,2-0.7,2.9
			s-1.1,1.5-2,2c-0.9,0.5-1.9,0.7-3,0.7h-2.9l1.7-9.8H234.5z M235.6,56.3c0.7-0.4,1.2-0.9,1.5-1.6c0.4-0.7,0.5-1.4,0.5-2.3
			c0-1-0.3-1.8-0.9-2.3s-1.4-0.8-2.5-0.8H233l-1.3,7.5h1.6C234.2,56.9,235,56.7,235.6,56.3z"/>
		<path class="st3" d="M239.5,57.2c0,0.2-0.1,0.4-0.3,0.6c-0.2,0.2-0.4,0.3-0.6,0.3c-0.2,0-0.4-0.1-0.5-0.2s-0.2-0.3-0.2-0.5
			c0-0.3,0.1-0.5,0.3-0.6c0.2-0.2,0.4-0.2,0.6-0.2c0.2,0,0.4,0.1,0.5,0.2C239.4,56.8,239.5,57,239.5,57.2z"/>
	</g>
</g>
</svg>
